<svg width="25" height="25" viewBox="0 0 25 25" fill="none" xmlns="http://www.w3.org/2000/svg">
<path d="M18.7507 6.25H4.16732C3.01672 6.25 2.08398 7.18274 2.08398 8.33333V16.6667C2.08398 17.8173 3.01672 18.75 4.16732 18.75H18.7507C19.9012 18.75 20.834 17.8173 20.834 16.6667V8.33333C20.834 7.18274 19.9012 6.25 18.7507 6.25Z" stroke="#F8F8F8" stroke-width="2.08333" stroke-linecap="round" stroke-linejoin="round"/>
<path d="M11.875 9.375L9.375 12.5H13.5417L11.0417 15.625M20.8333 10.4167H22.3958C22.534 10.4167 22.6664 10.4715 22.7641 10.5692C22.8618 10.6669 22.9167 10.7994 22.9167 10.9375V14.0625C22.9167 14.2006 22.8618 14.3331 22.7641 14.4308C22.6664 14.5285 22.534 14.5833 22.3958 14.5833H20.8333V10.4167Z" stroke="#F8F8F8" stroke-width="2.08333" stroke-linecap="round" stroke-linejoin="round"/>
</svg>
