<svg width="400" height="87" viewBox="0 0 400 87" fill="none" xmlns="http://www.w3.org/2000/svg">
<path d="M43.16 85.84C35.32 85.84 28.12 84 21.56 80.32C15 76.64 9.8 71.56 5.96 65.08C2.12 58.52 0.2 51.12 0.2 42.88C0.2 34.72 2.12 27.4 5.96 20.92C9.8 14.36 15 9.23999 21.56 5.55999C28.12 1.88 35.32 0.0399995 43.16 0.0399995C51.08 0.0399995 58.28 1.88 64.76 5.55999C71.32 9.23999 76.48 14.36 80.24 20.92C84.08 27.4 86 34.72 86 42.88C86 51.12 84.08 58.52 80.24 65.08C76.48 71.56 71.32 76.64 64.76 80.32C58.2 84 51 85.84 43.16 85.84ZM43.16 70.84C48.2 70.84 52.64 69.72 56.48 67.48C60.32 65.16 63.32 61.88 65.48 57.64C67.64 53.4 68.72 48.48 68.72 42.88C68.72 37.28 67.64 32.4 65.48 28.24C63.32 24 60.32 20.76 56.48 18.52C52.64 16.28 48.2 15.16 43.16 15.16C38.12 15.16 33.64 16.28 29.72 18.52C25.88 20.76 22.88 24 20.72 28.24C18.56 32.4 17.48 37.28 17.48 42.88C17.48 48.48 18.56 53.4 20.72 57.64C22.88 61.88 25.88 65.16 29.72 67.48C33.64 69.72 38.12 70.84 43.16 70.84ZM135.339 17.56C143.259 17.56 149.659 20.08 154.539 25.12C159.419 30.08 161.859 37.04 161.859 46V85H145.059V48.28C145.059 43 143.739 38.96 141.099 36.16C138.459 33.28 134.859 31.84 130.299 31.84C125.659 31.84 121.979 33.28 119.259 36.16C116.619 38.96 115.299 43 115.299 48.28V85H98.4988V18.52H115.299V26.8C117.539 23.92 120.379 21.68 123.819 20.08C127.339 18.4 131.179 17.56 135.339 17.56ZM268.228 50.32C268.228 52.72 268.068 54.88 267.748 56.8H219.148C219.548 61.6 221.228 65.36 224.188 68.08C227.148 70.8 230.788 72.16 235.108 72.16C241.348 72.16 245.788 69.48 248.428 64.12H266.548C264.628 70.52 260.948 75.8 255.508 79.96C250.068 84.04 243.388 86.08 235.468 86.08C229.068 86.08 223.308 84.68 218.188 81.88C213.148 79 209.188 74.96 206.308 69.76C203.508 64.56 202.108 58.56 202.108 51.76C202.108 44.88 203.508 38.84 206.308 33.64C209.108 28.44 213.028 24.44 218.068 21.64C223.108 18.84 228.908 17.44 235.468 17.44C241.788 17.44 247.428 18.8 252.388 21.52C257.428 24.24 261.308 28.12 264.028 33.16C266.828 38.12 268.228 43.84 268.228 50.32ZM250.828 45.52C250.748 41.2 249.188 37.76 246.148 35.2C243.108 32.56 239.388 31.24 234.988 31.24C230.828 31.24 227.308 32.52 224.428 35.08C221.628 37.56 219.908 41.04 219.268 45.52H250.828ZM276.171 51.52C276.171 44.8 277.491 38.84 280.131 33.64C282.851 28.44 286.491 24.44 291.051 21.64C295.691 18.84 300.851 17.44 306.531 17.44C311.491 17.44 315.811 18.44 319.491 20.44C323.251 22.44 326.251 24.96 328.491 28V18.52H345.411V85H328.491V75.28C326.331 78.4 323.331 81 319.491 83.08C315.731 85.08 311.371 86.08 306.411 86.08C300.811 86.08 295.691 84.64 291.051 81.76C286.491 78.88 282.851 74.84 280.131 69.64C277.491 64.36 276.171 58.32 276.171 51.52ZM328.491 51.76C328.491 47.68 327.691 44.2 326.091 41.32C324.491 38.36 322.331 36.12 319.611 34.6C316.891 33 313.971 32.2 310.851 32.2C307.731 32.2 304.851 32.96 302.211 34.48C299.571 36 297.411 38.24 295.731 41.2C294.131 44.08 293.331 47.52 293.331 51.52C293.331 55.52 294.131 59.04 295.731 62.08C297.411 65.04 299.571 67.32 302.211 68.92C304.931 70.52 307.811 71.32 310.851 71.32C313.971 71.32 316.891 70.56 319.611 69.04C322.331 67.44 324.491 65.2 326.091 62.32C327.691 59.36 328.491 55.84 328.491 51.76ZM378.619 28.84C380.779 25.32 383.579 22.56 387.019 20.56C390.539 18.56 394.539 17.56 399.019 17.56V35.2H394.579C389.299 35.2 385.299 36.44 382.579 38.92C379.939 41.4 378.619 45.72 378.619 51.88V85H361.819V18.52H378.619V28.84Z" fill="url(#paint0_linear_10_48)"/>
<defs>
<linearGradient id="paint0_linear_10_48" x1="213" y1="-5" x2="213" y2="91" gradientUnits="userSpaceOnUse">
<stop stop-color="#403B3E"/>
<stop offset="1" stop-color="#242526"/>
</linearGradient>
</defs>
</svg>
